<svg width="65" height="72" viewBox="0 0 65 72" fill="none" xmlns="http://www.w3.org/2000/svg">
<g filter="url(#filter0_f_136_240)">
<path d="M29.8953 37.0829C33.9404 41.8057 31.2117 46.5474 31.3494 54.1999C31.5022 65.3321 25.7016 68.8166 21.3261 65.8683C17.0157 63.0792 17.7602 56.0791 13.8879 52.2088C10.2558 48.0652 3.58948 48.3512 1.11386 43.5913C-1.29669 38.9905 2.51934 33.6662 13.5031 34.6916C20.8473 35.4282 25.5448 32.4744 29.8953 37.0829Z" fill="#FFFAF3"/>
<path d="M42.5779 44.6531C36.9295 45.1251 32.9586 48.6852 33.3968 52.3522C33.835 56.0191 39.2907 58.4311 44.8743 57.8008C50.5227 57.3287 54.5584 53.9269 54.0555 50.1017C53.5525 46.2765 48.2263 44.181 42.5779 44.6531Z" fill="#FFFAF3"/>
<path d="M22.375 23.0289C21.6587 28.6629 18.2491 32.2745 14.6955 31.384C11.1419 30.4936 8.79804 24.7648 9.72563 19.2368C10.442 13.6028 13.8516 9.99117 17.4052 10.8816C20.9588 11.7721 23.3026 17.5008 22.375 23.0289Z" fill="#FFFAF3"/>
<path d="M41.795 27.1062C36.7461 30.322 33.9858 35.4154 36.1627 38.9583C38.3396 42.5012 44.2869 42.7251 49.3358 39.5093C54.3847 36.2935 57.145 31.2002 54.9681 27.6573C52.7912 24.1144 46.8439 23.8904 41.795 27.1062Z" fill="#FFFAF3"/>
<path d="M41.0512 24.7418C37.7051 29.4902 32.6878 30.9429 29.6067 28.4159C26.5256 25.889 27.0698 20.0722 30.4159 15.3239C33.7619 10.5756 38.7792 9.12286 41.8603 11.6498C44.9414 14.1768 44.3972 19.9935 41.0512 24.7418Z" fill="#FFFAF3"/>
</g>
<defs>
<filter id="filter0_f_136_240" x="-3.57935" y="6.42358" width="63.2986" height="64.444" filterUnits="userSpaceOnUse" color-interpolation-filters="sRGB">
<feFlood flood-opacity="0" result="BackgroundImageFix"/>
<feBlend mode="normal" in="SourceGraphic" in2="BackgroundImageFix" result="shape"/>
<feGaussianBlur stdDeviation="2" result="effect1_foregroundBlur_136_240"/>
</filter>
</defs>
</svg>
