<svg width="1440" height="833" viewBox="0 0 1440 833" fill="none" xmlns="http://www.w3.org/2000/svg">
<path d="M284.837 143.385C-132.656 47.4619 -178.377 103.417 -149.052 143.385C-284.517 424.66 -516.657 941.145 -361.497 756.893C-167.547 526.578 460.292 862.808 843.693 830.834C1150.41 805.254 1473.03 678.623 1596 618.504V0L1148.12 87.9295C1002.14 129.396 702.33 239.308 284.837 143.385Z" fill="url(#paint0_linear_130_674)"/>
<path d="M322.923 213.627C327.562 219.206 335.323 211.065 335.32 205.227C340.615 195.757 330.691 189.474 324.954 198.273C319.215 201.235 316.299 212.329 322.923 213.627ZM324.236 211.915C318.054 211.288 321.847 201.568 325.71 199.406L325.896 198.458C330.86 190.674 338.588 196.126 333.624 203.91L333.438 204.858C333.661 209.572 327.382 217.202 323.295 211.731L324.236 211.915Z" fill="white"/>
<path d="M305.669 203.026C310.303 208.63 318.248 199.547 318.252 193.678C323.558 184.152 313.558 178.254 307.7 187.673C301.957 190.656 299.045 201.728 305.669 203.026ZM306.982 201.315C300.799 200.69 304.59 190.983 308.456 188.805L308.641 187.857C313.615 180.027 321.343 185.479 316.369 193.309C316.587 198.048 310.122 206.626 306.041 201.13L306.982 201.315Z" fill="white"/>
<path d="M328.781 234.196C333.106 238.523 340.799 234.474 339.679 228.455C343.316 221.628 332.93 215.655 328.187 222.266C322.658 224.082 323.356 232.553 328.781 234.196ZM330.094 232.484L329.153 232.3C324.834 230.874 324.739 224.314 328.942 223.398L329.883 223.582C333.192 218.431 341.105 222.935 337.797 228.087L337.611 229.035C338.506 233.27 333.235 236.984 329.908 233.432L330.094 232.484Z" fill="white"/>
<path d="M284.685 208.178C289.01 212.506 296.703 208.457 295.584 202.438C299.22 195.611 288.834 189.638 284.091 196.248C278.562 198.065 279.26 206.535 284.685 208.178ZM285.998 206.467L285.057 206.282C280.738 204.856 280.643 198.297 284.846 197.381L285.787 197.565C289.096 192.414 297.009 196.918 293.701 202.069L293.515 203.017C294.41 207.252 289.139 210.966 285.812 207.415L285.998 206.467Z" fill="white"/>
<path d="M319.561 230.96C328.533 214.688 301.647 198.187 291.671 213.681C272.541 219.82 282.178 234.152 294 241.703C305.931 248.694 323.18 250.863 319.561 230.96ZM317.679 230.591C321.07 248.704 306.13 246.764 295.312 239.991C284.495 233.219 274.334 221.559 292.241 215.762L292.427 214.814C301.626 200.331 325.764 215.89 317.679 230.591Z" fill="white"/>
<path d="M1217.25 125.716C1212.82 131.467 1222.47 137.25 1228.17 135.965C1238.57 139.049 1242.52 127.987 1232.67 124.324C1228.52 119.376 1217.06 118.969 1217.25 125.716ZM1219.21 126.621C1218.46 120.452 1228.78 122.017 1231.73 125.31L1232.7 125.283C1241.38 128.416 1237.76 137.153 1229.08 134.02L1228.11 134.047C1223.56 135.3 1214.74 130.851 1219.18 125.662L1219.21 126.621Z" fill="white"/>
<path d="M1223.8 106.554C1219.35 112.306 1229.96 118.062 1235.68 116.776C1246.14 119.859 1249.7 108.808 1239.22 105.162C1235.05 100.215 1223.61 99.807 1223.8 106.554ZM1225.76 107.459C1225.01 101.29 1235.31 102.855 1238.28 106.148L1239.25 106.121C1247.98 109.253 1244.36 117.99 1235.63 114.858C1231.05 116.112 1221.26 111.69 1225.73 106.5L1225.76 107.459Z" fill="white"/>
<path d="M1198.47 135.95C1195.2 141.119 1200.84 147.735 1206.46 145.321C1213.92 147.368 1217.47 135.924 1209.98 132.749C1206.99 127.754 1198.88 130.296 1198.47 135.95ZM1200.43 136.854L1200.4 135.895C1200.84 131.369 1207.22 129.836 1209.04 133.734L1209.06 134.693C1214.82 136.789 1212.16 145.499 1206.41 143.403L1205.44 143.43C1201.51 145.233 1196.73 140.908 1199.46 136.881L1200.43 136.854Z" fill="white"/>
<path d="M1214.16 87.215C1210.89 92.3848 1216.53 99.0005 1222.16 96.5859C1229.62 98.6338 1233.16 87.1894 1225.67 84.014C1222.68 79.0196 1214.57 81.5611 1214.16 87.215ZM1216.12 88.1196L1216.09 87.1609C1216.54 82.6346 1222.91 81.1011 1224.73 84.9998L1224.76 85.9585C1230.51 88.0542 1227.85 96.7642 1222.1 94.6685L1221.14 94.6955C1217.2 96.4985 1212.42 92.1729 1215.15 88.1467L1216.12 88.1196Z" fill="white"/>
<path d="M1199.6 126.244C1217.44 131.422 1227.63 101.568 1210.33 95.2397C1200.14 77.9251 1188.27 90.4756 1183.5 103.667C1179.3 116.843 1180.98 134.147 1199.6 126.244ZM1199.54 124.327C1182.62 131.614 1181.23 116.613 1185.46 104.572C1189.69 92.5308 1198.83 80.0566 1208.42 96.2526L1209.39 96.2255C1225.54 102.018 1215.66 128.985 1199.54 124.327Z" fill="white"/>
<path d="M2.74812 261.137C-12.1404 265.429 -25.9126 277.242 -22.0115 290.776L-16.2967 310.602C-12.3956 324.136 5.58558 326.925 20.4741 322.633C35.3627 318.342 49.1348 306.528 45.2337 292.994L39.4848 273.05C35.6179 259.635 17.6367 256.845 2.74812 261.137ZM3.0071 319.439C-5.78004 318.628 -12.2054 314.823 -13.6084 309.955L-16.7567 299.033C-12.5434 302.705 -6.50551 304.436 0.0316563 304.738C-0.612821 307.367 -0.400941 310.777 0.523002 313.983C1.10474 316.001 1.97593 317.807 3.0071 319.439ZM-9.88019 298.08C-5.6024 292.732 1.51537 288.237 9.86591 285.83C18.2165 283.423 26.6346 283.44 33.1025 285.69C29.1104 290.57 22.32 295.227 13.3221 297.821C4.35849 300.533 -3.86915 300.205 -9.88019 298.08ZM42.5797 293.759C44.7698 301.357 35.6427 312.989 19.0711 317.766C15.5108 318.792 12.1715 319.369 8.92374 319.533C6.71541 319.656 4.23788 316.898 3.17705 313.218C2.56109 311.081 2.4667 309.051 2.96232 307.365C3.3932 305.698 4.35308 304.65 5.58671 304.551C8.67079 304.305 11.7817 303.666 14.7594 302.807C25.9582 299.579 36.5419 292.028 39.3972 282.719L42.5797 293.759ZM35.552 282.027C28.3841 278.564 18.367 278.108 8.46288 280.963C-1.44125 283.818 -9.67886 289.535 -13.9039 296.282C-16.6903 294.642 -18.6388 292.504 -19.3574 290.011C-21.5475 282.413 -12.4205 270.781 4.15115 266.004C20.7228 261.228 34.6749 266.335 36.8307 273.815C37.5493 276.308 37.038 279.155 35.552 282.027Z" fill="white"/>
<path d="M8.50285 315.155C9.39663 314.897 9.73815 313.359 9.26567 311.72C8.79319 310.081 7.68562 308.961 6.79185 309.219C5.89807 309.476 5.55654 311.014 6.02903 312.653C6.50151 314.292 7.60908 315.412 8.50285 315.155Z" fill="white"/>
<path d="M13.7879 314.274C14.6817 314.016 15.0232 312.479 14.5507 310.839C14.0782 309.2 12.9707 308.08 12.0769 308.338C11.1831 308.595 10.8416 310.133 11.3141 311.772C11.7865 313.411 12.8941 314.531 13.7879 314.274Z" fill="white"/>
<path d="M19.035 313.019C19.9287 312.761 20.2703 311.223 19.7978 309.584C19.3253 307.945 18.2177 306.825 17.3239 307.083C16.4302 307.34 16.0886 308.878 16.5611 310.517C17.0336 312.156 18.1412 313.276 19.035 313.019Z" fill="white"/>
<path d="M24.0804 311.307C24.9741 311.049 25.3157 309.512 24.8432 307.873C24.3707 306.233 23.2631 305.113 22.3694 305.371C21.4756 305.629 21.1341 307.166 21.6065 308.805C22.079 310.445 23.1866 311.565 24.0804 311.307Z" fill="white"/>
<path d="M668.696 197.497C666.306 191.816 660.507 188.802 655.788 190.787C651.627 192.537 649.658 197.412 650.831 202.46L625.743 213.013C622.956 208.644 618.094 206.642 613.933 208.393C609.214 210.378 607.313 216.631 609.702 222.311C610.74 224.777 612.397 226.807 614.456 228.052C613.938 230.469 614.198 232.999 615.235 235.465C617.624 241.145 623.424 244.159 628.143 242.174C632.304 240.424 634.273 235.55 633.1 230.502L658.125 219.975C660.913 224.344 665.775 226.345 669.935 224.595C674.655 222.61 676.556 216.357 674.167 210.677C673.129 208.21 671.471 206.181 669.413 204.936C669.993 202.492 669.733 199.963 668.696 197.497ZM666.72 207.916C668.527 208.563 670.058 210.118 670.875 212.061C672.353 215.574 671.188 219.406 668.269 220.634C665.413 221.836 661.921 220.138 660.381 216.651C659.91 215.53 658.819 215.021 657.887 215.413L630.005 227.141C629.074 227.533 628.768 228.717 629.146 229.79C630.53 233.254 629.395 236.985 626.477 238.213C623.558 239.441 620.004 237.593 618.526 234.081C617.709 232.137 617.668 229.956 618.469 228.211C618.747 227.655 618.682 226.978 618.43 226.38C618.179 225.783 617.679 225.289 617.149 225.072C615.342 224.425 613.811 222.87 612.993 220.927C611.516 217.414 612.681 213.581 615.6 212.354C618.456 211.152 621.948 212.85 623.487 216.337C623.959 217.458 625.05 217.966 625.981 217.575L653.988 205.794C654.919 205.402 655.225 204.218 654.847 203.146C653.463 199.682 654.597 195.95 657.516 194.722C660.435 193.495 663.989 195.342 665.467 198.855C666.284 200.798 666.325 202.98 665.524 204.724C665.246 205.281 665.311 205.957 665.563 206.555C665.69 207.205 666.19 207.699 666.72 207.916Z" fill="white"/>
<path d="M635.426 200.935C636.358 200.543 636.726 199.333 636.254 198.212L634.022 192.906C633.551 191.784 632.428 191.201 631.497 191.593C630.565 191.985 630.197 193.195 630.669 194.316L632.901 199.622C633.373 200.744 634.495 201.327 635.426 200.935Z" fill="white"/>
<path d="M642.204 200.02C642.515 200.065 642.733 200.061 642.981 199.957C643.602 199.695 644.035 198.986 644 198.209L643.851 192.642C643.815 191.513 642.939 190.474 641.912 190.291C640.916 190.182 640.111 191.048 640.085 192.203L640.234 197.77C640.27 198.898 641.146 199.937 642.204 200.02Z" fill="white"/>
<path d="M627.45 205.082C628.075 205.699 628.791 205.837 629.412 205.576C629.661 205.472 629.878 205.292 630.001 205.065C630.62 204.277 630.489 202.924 629.677 202.034L625.802 198.035C625.02 197.22 623.838 197.189 623.157 198.004C622.539 198.792 622.669 200.144 623.482 201.034L627.45 205.082Z" fill="white"/>
<path d="M648.504 232.026C647.573 232.418 647.205 233.629 647.677 234.75L649.909 240.056C650.38 241.177 651.503 241.761 652.434 241.369C653.366 240.977 653.733 239.767 653.262 238.646L651.03 233.339C650.558 232.218 649.436 231.635 648.504 232.026Z" fill="white"/>
<path d="M641.727 232.942C640.731 232.833 639.926 233.7 639.9 234.854L640.049 240.421C640.085 241.549 640.961 242.588 641.988 242.772C642.299 242.817 642.517 242.813 642.766 242.709C643.387 242.448 643.819 241.738 643.784 240.961L643.635 235.394C643.661 234.064 642.785 233.025 641.727 232.942Z" fill="white"/>
<path d="M656.481 227.88C655.699 227.065 654.517 227.034 653.836 227.849C653.218 228.637 653.348 229.989 654.161 230.879L658.036 234.878C658.661 235.495 659.377 235.634 659.998 235.373C660.246 235.268 660.463 235.089 660.586 234.861C661.205 234.073 661.075 232.72 660.262 231.831L656.481 227.88Z" fill="white"/>
<path d="M1436.7 199.497C1434.31 193.816 1428.51 190.802 1423.79 192.787C1419.63 194.537 1417.66 199.412 1418.83 204.46L1393.74 215.013C1390.96 210.644 1386.09 208.642 1381.93 210.393C1377.21 212.378 1375.31 218.631 1377.7 224.311C1378.74 226.777 1380.4 228.807 1382.46 230.052C1381.94 232.469 1382.2 234.999 1383.24 237.465C1385.62 243.145 1391.42 246.159 1396.14 244.174C1400.3 242.424 1402.27 237.55 1401.1 232.502L1426.13 221.975C1428.91 226.344 1433.77 228.345 1437.94 226.595C1442.65 224.61 1444.56 218.357 1442.17 212.677C1441.13 210.21 1439.47 208.181 1437.41 206.936C1437.99 204.492 1437.73 201.963 1436.7 199.497ZM1434.72 209.916C1436.53 210.563 1438.06 212.118 1438.88 214.061C1440.35 217.574 1439.19 221.406 1436.27 222.634C1433.41 223.836 1429.92 222.138 1428.38 218.651C1427.91 217.53 1426.82 217.021 1425.89 217.413L1398.01 229.141C1397.07 229.533 1396.77 230.717 1397.15 231.79C1398.53 235.254 1397.4 238.985 1394.48 240.213C1391.56 241.441 1388 239.593 1386.53 236.081C1385.71 234.137 1385.67 231.956 1386.47 230.211C1386.75 229.655 1386.68 228.978 1386.43 228.38C1386.18 227.783 1385.68 227.289 1385.15 227.072C1383.34 226.425 1381.81 224.87 1380.99 222.927C1379.52 219.414 1380.68 215.581 1383.6 214.354C1386.46 213.152 1389.95 214.85 1391.49 218.337C1391.96 219.458 1393.05 219.966 1393.98 219.575L1421.99 207.794C1422.92 207.402 1423.22 206.218 1422.85 205.146C1421.46 201.682 1422.6 197.95 1425.52 196.722C1428.43 195.495 1431.99 197.342 1433.47 200.855C1434.28 202.798 1434.32 204.98 1433.52 206.724C1433.25 207.281 1433.31 207.957 1433.56 208.555C1433.69 209.205 1434.19 209.699 1434.72 209.916Z" fill="white"/>
<path d="M1403.43 202.935C1404.36 202.543 1404.73 201.333 1404.25 200.212L1402.02 194.906C1401.55 193.784 1400.43 193.201 1399.5 193.593C1398.57 193.985 1398.2 195.195 1398.67 196.316L1400.9 201.622C1401.37 202.744 1402.5 203.327 1403.43 202.935Z" fill="white"/>
<path d="M1410.2 202.02C1410.52 202.065 1410.73 202.061 1410.98 201.957C1411.6 201.695 1412.03 200.986 1412 200.209L1411.85 194.642C1411.81 193.513 1410.94 192.474 1409.91 192.291C1408.92 192.182 1408.11 193.048 1408.09 194.203L1408.23 199.77C1408.27 200.898 1409.15 201.937 1410.2 202.02Z" fill="white"/>
<path d="M1395.45 207.082C1396.08 207.699 1396.79 207.837 1397.41 207.576C1397.66 207.472 1397.88 207.292 1398 207.065C1398.62 206.277 1398.49 204.924 1397.68 204.034L1393.8 200.035C1393.02 199.22 1391.84 199.189 1391.16 200.004C1390.54 200.792 1390.67 202.144 1391.48 203.034L1395.45 207.082Z" fill="white"/>
<path d="M1416.5 234.026C1415.57 234.418 1415.21 235.629 1415.68 236.75L1417.91 242.056C1418.38 243.177 1419.5 243.761 1420.43 243.369C1421.37 242.977 1421.73 241.767 1421.26 240.646L1419.03 235.339C1418.56 234.218 1417.44 233.635 1416.5 234.026Z" fill="white"/>
<path d="M1409.73 234.942C1408.73 234.833 1407.93 235.7 1407.9 236.854L1408.05 242.421C1408.09 243.549 1408.96 244.588 1409.99 244.772C1410.3 244.817 1410.52 244.813 1410.77 244.709C1411.39 244.448 1411.82 243.738 1411.78 242.961L1411.64 237.394C1411.66 236.064 1410.79 235.025 1409.73 234.942Z" fill="white"/>
<path d="M1424.48 229.88C1423.7 229.065 1422.52 229.034 1421.84 229.849C1421.22 230.637 1421.35 231.989 1422.16 232.879L1426.04 236.878C1426.66 237.495 1427.38 237.634 1428 237.373C1428.25 237.268 1428.46 237.089 1428.59 236.861C1429.21 236.073 1429.07 234.72 1428.26 233.831L1424.48 229.88Z" fill="white"/>
<defs>
<linearGradient id="paint0_linear_130_674" x1="591.5" y1="-3.47332e-08" x2="591.742" y2="613.009" gradientUnits="userSpaceOnUse">
<stop stop-color="#F1F3FF"/>
<stop offset="1" stop-color="#F1F3FF" stop-opacity="0"/>
</linearGradient>
</defs>
</svg>
