<svg width="34" height="41" viewBox="0 0 34 41" fill="none" xmlns="http://www.w3.org/2000/svg">
<g filter="url(#filter0_f_136_246)">
<path d="M20.4788 19.8402C23.6003 18.1426 25.925 20.2328 30.2181 21.068C36.4576 22.3097 37.7134 25.9668 35.5442 28.0606C33.4716 30.137 29.6483 28.8864 27.0238 30.5892C24.2752 32.125 23.6403 35.8847 20.6851 36.7008C17.8266 37.4995 15.3059 34.7322 17.1883 28.7161C18.4754 24.6995 17.3847 21.7222 20.4788 19.8402Z" fill="#FFFAF3"/>
<path d="M26.2213 13.6549C25.8118 16.8678 27.328 19.5113 29.4295 19.7036C31.5311 19.8958 33.5294 17.1344 33.8427 13.9388C34.2522 10.7259 32.8321 8.06502 30.6345 7.8901C28.4368 7.71517 26.6308 10.442 26.2213 13.6549Z" fill="#FFFAF3"/>
<path d="M11.7282 22.3677C14.7914 23.4397 16.4033 25.7757 15.4821 27.6555C14.5608 29.5353 11.0799 30.1623 8.10107 28.9849C5.03785 27.9129 3.42593 25.5769 4.34717 23.6971C5.26841 21.8173 8.74936 21.1904 11.7282 22.3677Z" fill="#FFFAF3"/>
<path d="M16.3218 12.0007C17.5171 15.2057 20.0345 17.3555 22.274 16.5613C24.5134 15.767 25.3475 12.47 24.1522 9.26508C22.9569 6.06013 20.4395 3.91034 18.2 4.70458C15.9606 5.49881 15.1265 8.79579 16.3218 12.0007Z" fill="#FFFAF3"/>
<path d="M14.9118 12.1346C17.1666 14.5706 17.3803 17.5477 15.6009 18.9684C13.8214 20.3891 10.6355 19.3915 8.38075 16.9556C6.12599 14.5196 5.91222 11.5425 7.69171 10.1218C9.47119 8.70111 12.657 9.69864 14.9118 12.1346Z" fill="#FFFAF3"/>
</g>
<defs>
<filter id="filter0_f_136_246" x="0.0888672" y="0.53891" width="40.4409" height="40.2965" filterUnits="userSpaceOnUse" color-interpolation-filters="sRGB">
<feFlood flood-opacity="0" result="BackgroundImageFix"/>
<feBlend mode="normal" in="SourceGraphic" in2="BackgroundImageFix" result="shape"/>
<feGaussianBlur stdDeviation="2" result="effect1_foregroundBlur_136_246"/>
</filter>
</defs>
</svg>
