<svg width="128" height="124" viewBox="0 0 128 124" fill="none" xmlns="http://www.w3.org/2000/svg">
<g filter="url(#filter0_f_130_551)">
<path d="M60.8062 64.1616C53.7995 72.3421 58.5259 80.5554 58.2874 93.8108C58.0227 113.093 68.0703 119.129 75.6493 114.022C83.1155 109.191 81.8258 97.0657 88.5333 90.3619C94.8246 83.1845 106.372 83.6799 110.66 75.4351C114.835 67.4659 108.225 58.2434 89.1998 60.0195C76.4787 61.2954 68.3418 56.179 60.8062 64.1616Z" fill="#FFFAF3"/>
<path d="M38.838 77.2742C48.6218 78.0919 55.5 84.2584 54.741 90.6102C53.982 96.9619 44.532 101.14 34.8603 100.048C25.0765 99.2303 18.0862 93.3378 18.9573 86.7121C19.8284 80.0863 29.0542 76.4565 38.838 77.2742Z" fill="#FFFAF3"/>
<path d="M73.8326 39.8179C75.0734 49.5769 80.9794 55.8327 87.1347 54.2903C93.2901 52.7479 97.3499 42.8249 95.7432 33.2495C94.5023 23.4906 88.5964 17.2348 82.441 18.7772C76.2857 20.3195 72.2259 30.2426 73.8326 39.8179Z" fill="#FFFAF3"/>
<path d="M40.1942 46.8805C48.9396 52.4507 53.7209 61.2732 49.9502 67.41C46.1795 73.5468 35.878 73.9347 27.1326 68.3645C18.3871 62.7943 13.6058 53.9718 17.3765 47.835C21.1472 41.6982 31.4487 41.3103 40.1942 46.8805Z" fill="#FFFAF3"/>
<path d="M41.4826 42.7851C47.2785 51.0099 55.9691 53.5262 61.306 49.1491C66.6429 44.7721 65.7003 34.6967 59.9044 26.4719C54.1086 18.2471 45.418 15.7308 40.081 20.1078C34.7441 24.4849 35.6868 34.5603 41.4826 42.7851Z" fill="#FFFAF3"/>
</g>
<defs>
<filter id="filter0_f_130_551" x="8.0755" y="9.98383" width="111.785" height="113.769" filterUnits="userSpaceOnUse" color-interpolation-filters="sRGB">
<feFlood flood-opacity="0" result="BackgroundImageFix"/>
<feBlend mode="normal" in="SourceGraphic" in2="BackgroundImageFix" result="shape"/>
<feGaussianBlur stdDeviation="4" result="effect1_foregroundBlur_130_551"/>
</filter>
</defs>
</svg>
