<svg width="95" height="95" viewBox="0 0 95 95" fill="none" xmlns="http://www.w3.org/2000/svg">
<g filter="url(#filter0_f_130_563)">
<path d="M49.8655 47.821C55.0663 53.8932 51.558 59.9896 51.7351 69.8286C51.9315 84.1414 44.4735 88.6214 38.8479 84.8308C33.306 81.2448 34.2633 72.2447 29.2845 67.2686C24.6147 61.9411 16.0437 62.3088 12.8608 56.189C9.76152 50.2737 14.6678 43.4281 28.7898 44.7465C38.2323 45.6935 44.272 41.8958 49.8655 47.821Z" fill="#FFFAF3"/>
<path d="M66.1718 57.5541C58.9096 58.161 53.8041 62.7382 54.3675 67.4529C54.9309 72.1676 61.9453 75.2687 69.1243 74.4583C76.3865 73.8514 81.5752 69.4776 80.9286 64.5595C80.282 59.6414 73.434 56.9471 66.1718 57.5541Z" fill="#FFFAF3"/>
<path d="M40.1964 29.7515C39.2754 36.9952 34.8916 41.6387 30.3226 40.4939C25.7537 39.349 22.7402 31.9835 23.9329 24.876C24.8539 17.6322 29.2377 12.9887 33.8066 14.1336C38.3755 15.2785 41.389 22.644 40.1964 29.7515Z" fill="#FFFAF3"/>
<path d="M65.1651 34.9939C58.6737 39.1284 55.1247 45.6771 57.9236 50.2322C60.7224 54.7874 68.3689 55.0753 74.8604 50.9407C81.3518 46.8061 84.9008 40.2575 82.102 35.7023C79.3031 31.1472 71.6566 30.8593 65.1651 34.9939Z" fill="#FFFAF3"/>
<path d="M64.2087 31.9539C59.9067 38.0589 53.4559 39.9267 49.4945 36.6778C45.533 33.4288 46.2327 25.9501 50.5348 19.8452C54.8369 13.7402 61.2877 11.8724 65.2491 15.1213C69.2105 18.3703 68.5108 25.8489 64.2087 31.9539Z" fill="#FFFAF3"/>
</g>
<defs>
<filter id="filter0_f_130_563" x="3.96948" y="5.54474" width="87.0982" height="88.5709" filterUnits="userSpaceOnUse" color-interpolation-filters="sRGB">
<feFlood flood-opacity="0" result="BackgroundImageFix"/>
<feBlend mode="normal" in="SourceGraphic" in2="BackgroundImageFix" result="shape"/>
<feGaussianBlur stdDeviation="4" result="effect1_foregroundBlur_130_563"/>
</filter>
</defs>
</svg>
