<svg width="35" height="34" viewBox="0 0 35 34" fill="none" xmlns="http://www.w3.org/2000/svg">
<g filter="url(#filter0_f_136_272)">
<path d="M17.9897 16.6476C20.5127 17.506 20.5417 19.8504 22.2634 22.6425C24.7505 26.7144 23.3721 29.266 21.1148 29.1341C18.9162 29.0467 17.6624 26.3026 15.3892 25.7209C13.1451 24.9859 10.7491 26.5469 8.79684 25.3321C6.90331 24.1618 7.14802 21.3651 11.4225 19.3449C14.2917 18.013 15.3791 15.898 17.9897 16.6476Z" fill="#FFFAF3"/>
<path d="M24.3197 16.6701C22.3398 18.0775 21.6527 20.2574 22.615 21.514C23.5772 22.7707 26.1158 22.4689 28.0373 21.0173C30.0173 19.6099 30.7627 17.4742 29.7421 16.1733C28.7214 14.8725 26.2996 15.2627 24.3197 16.6701Z" fill="#FFFAF3"/>
<path d="M12.1477 13.1068C13.1137 15.341 12.6449 17.4173 11.14 17.8649C9.63507 18.3124 7.51985 16.7116 6.65489 14.4704C5.68889 12.2363 6.15769 10.1599 7.66261 9.71236C9.16753 9.26481 11.2827 10.8657 12.1477 13.1068Z" fill="#FFFAF3"/>
<path d="M20.1997 10.3701C19.0399 12.6584 19.1341 15.1395 20.7105 15.9707C22.2869 16.8019 24.529 15.5859 25.6888 13.2976C26.8485 11.0092 26.7543 8.5282 25.178 7.69698C23.6016 6.86576 21.3595 8.08176 20.1997 10.3701Z" fill="#FFFAF3"/>
<path d="M19.4091 9.66059C19.212 12.1423 17.6789 13.7735 15.9909 13.5144C14.3029 13.2553 13.2335 10.9913 13.4307 8.50965C13.6278 6.02797 15.1609 4.39673 16.8489 4.65585C18.5369 4.91498 19.6063 7.1789 19.4091 9.66059Z" fill="#FFFAF3"/>
</g>
<defs>
<filter id="filter0_f_136_272" x="5.15063" y="3.62888" width="26.0476" height="26.5101" filterUnits="userSpaceOnUse" color-interpolation-filters="sRGB">
<feFlood flood-opacity="0" result="BackgroundImageFix"/>
<feBlend mode="normal" in="SourceGraphic" in2="BackgroundImageFix" result="shape"/>
<feGaussianBlur stdDeviation="0.5" result="effect1_foregroundBlur_136_272"/>
</filter>
</defs>
</svg>
