<svg width="102" height="127" viewBox="0 0 102 127" fill="none" xmlns="http://www.w3.org/2000/svg">
<g filter="url(#filter0_f_130_569)">
<path d="M63.8342 60.2249C72.1664 53.3993 80.274 58.3047 93.5314 58.3569C112.815 58.5152 118.629 68.6927 113.357 76.1579C108.363 83.5164 96.2694 81.9611 89.4201 88.5199C82.1065 94.6523 82.3485 106.207 74.0117 110.314C65.9528 114.313 56.8774 107.503 59.0704 88.5209C60.625 75.8307 55.6883 67.5836 63.8342 60.2249Z" fill="#FFFAF3"/>
<path d="M77.4254 38.5496C78.0283 48.349 84.0425 55.3608 90.4093 54.7412C96.7762 54.1217 101.16 44.7656 100.281 35.0723C99.678 25.2729 93.9402 18.155 87.2969 18.8806C80.6537 19.6062 76.8224 28.7502 77.4254 38.5496Z" fill="#FFFAF3"/>
<path d="M39.2107 72.7143C48.9401 74.1689 55.0649 80.2106 53.3879 86.3306C51.7109 92.4506 41.7012 96.2919 32.1634 94.4756C22.434 93.021 16.3092 86.9793 17.9862 80.8592C19.6632 74.7392 29.6729 70.8979 39.2107 72.7143Z" fill="#FFFAF3"/>
<path d="M47.0093 39.2389C52.3864 48.1043 61.1019 53.078 67.3199 49.4428C73.5379 45.8076 74.1516 35.517 68.7745 26.6515C63.3975 17.7861 54.682 12.8124 48.464 16.4476C42.246 20.0828 41.6323 30.3734 47.0093 39.2389Z" fill="#FFFAF3"/>
<path d="M42.8866 40.4372C50.9823 46.412 53.3074 55.1557 48.8144 60.3954C44.3213 65.635 34.269 64.4716 26.1733 58.4968C18.0776 52.5219 15.7525 43.7782 20.2455 38.5386C24.7386 33.2989 34.7909 34.4623 42.8866 40.4372Z" fill="#FFFAF3"/>
</g>
<defs>
<filter id="filter0_f_130_569" x="9.71039" y="7.24756" width="113.496" height="112.167" filterUnits="userSpaceOnUse" color-interpolation-filters="sRGB">
<feFlood flood-opacity="0" result="BackgroundImageFix"/>
<feBlend mode="normal" in="SourceGraphic" in2="BackgroundImageFix" result="shape"/>
<feGaussianBlur stdDeviation="4" result="effect1_foregroundBlur_130_569"/>
</filter>
</defs>
</svg>
