<svg width="128" height="133" viewBox="0 0 128 133" fill="none" xmlns="http://www.w3.org/2000/svg">
<g filter="url(#filter0_f_130_1068)">
<path d="M65.41 63.0972C72.8441 55.3031 81.4912 59.1792 94.6553 57.6083C113.813 55.4051 120.829 64.7945 116.511 72.8488C112.455 80.7632 100.262 80.6999 94.2668 88.0478C87.7588 95.0292 89.4133 106.468 81.6418 111.564C74.1331 116.52 64.2923 110.871 64.1454 91.7635C64.1351 78.9785 58.226 71.3977 65.41 63.0972Z" fill="white"/>
<path d="M76.246 39.9212C78.0438 49.5731 84.8711 55.796 91.1142 54.4019C97.3574 53.0077 100.563 43.1853 98.5041 33.6725C96.7062 24.0206 90.1404 17.6586 83.6359 19.1919C77.1314 20.7252 74.4481 30.2693 76.246 39.9212Z" fill="white"/>
<path d="M42.5004 78.5065C52.3347 78.7593 59.1529 84.0059 58.2376 90.2852C57.3223 96.5645 47.8581 101.602 38.1697 100.967C28.3354 100.714 21.5172 95.4674 22.4325 89.1881C23.3478 82.9089 32.812 77.8713 42.5004 78.5065Z" fill="white"/>
<path d="M46.1429 44.3283C52.5647 52.469 61.8234 56.3384 67.5497 51.9695C73.276 47.6005 72.6256 37.3122 66.2038 29.1716C59.782 21.0309 50.5233 17.1614 44.797 21.5304C39.0707 25.8994 39.7212 36.1876 46.1429 44.3283Z" fill="white"/>
<path d="M42.1979 46.0223C50.9641 50.9613 54.342 59.3546 50.524 65.1048C46.7061 70.855 36.587 70.9308 27.8208 65.9918C19.0547 61.0528 15.6768 52.6595 19.4947 46.9093C23.3126 41.159 33.4318 41.0833 42.1979 46.0223Z" fill="white"/>
</g>
<defs>
<filter id="filter0_f_130_1068" x="9.93994" y="10.9641" width="115.799" height="110.302" filterUnits="userSpaceOnUse" color-interpolation-filters="sRGB">
<feFlood flood-opacity="0" result="BackgroundImageFix"/>
<feBlend mode="normal" in="SourceGraphic" in2="BackgroundImageFix" result="shape"/>
<feGaussianBlur stdDeviation="4" result="effect1_foregroundBlur_130_1068"/>
</filter>
</defs>
</svg>
