<svg width="128" height="124" viewBox="0 0 128 124" fill="none" xmlns="http://www.w3.org/2000/svg">
<g filter="url(#filter0_f_130_1056)">
<path d="M67.1938 64.1615C74.2005 72.3421 69.4741 80.5553 69.7126 93.8107C69.9773 113.093 59.9297 119.129 52.3507 114.022C44.8845 109.191 46.1742 97.0657 39.4667 90.3618C33.1754 83.1844 21.6284 83.6798 17.3403 75.435C13.1649 67.4658 19.7748 58.2433 38.8002 60.0194C51.5213 61.2953 59.6582 56.1789 67.1938 64.1615Z" fill="white"/>
<path d="M89.1619 77.274C79.3781 78.0917 72.4999 84.2582 73.2589 90.61C74.0179 96.9617 83.4679 101.14 93.1396 100.048C102.923 99.2301 109.914 93.3376 109.043 86.7119C108.172 80.0861 98.9457 76.4563 89.1619 77.274Z" fill="white"/>
<path d="M54.1675 39.8178C52.9266 49.5767 47.0207 55.8325 40.8653 54.2902C34.71 52.7478 30.6502 42.8248 32.2569 33.2494C33.4977 23.4905 39.4037 17.2347 45.559 18.777C51.7144 20.3194 55.7742 30.2424 54.1675 39.8178Z" fill="white"/>
<path d="M87.8059 46.8804C79.0605 52.4506 74.2792 61.2731 78.0499 67.4099C81.8206 73.5466 92.1221 73.9345 100.868 68.3643C109.613 62.7941 114.394 53.9717 110.624 47.8349C106.853 41.6981 96.5513 41.3102 87.8059 46.8804Z" fill="white"/>
<path d="M86.5173 42.785C80.7215 51.0098 72.0309 53.5261 66.6939 49.1491C61.357 44.772 62.2997 34.6966 68.0955 26.4718C73.8914 18.247 82.582 15.7307 87.9189 20.1078C93.2559 24.4848 92.3132 34.5602 86.5173 42.785Z" fill="white"/>
</g>
<defs>
<filter id="filter0_f_130_1056" x="8.13953" y="9.98376" width="111.785" height="113.769" filterUnits="userSpaceOnUse" color-interpolation-filters="sRGB">
<feFlood flood-opacity="0" result="BackgroundImageFix"/>
<feBlend mode="normal" in="SourceGraphic" in2="BackgroundImageFix" result="shape"/>
<feGaussianBlur stdDeviation="4" result="effect1_foregroundBlur_130_1056"/>
</filter>
</defs>
</svg>
