<svg width="119" height="97" viewBox="0 0 119 97" fill="none" xmlns="http://www.w3.org/2000/svg">
<g filter="url(#filter0_f_130_1074)">
<path d="M45.0544 67.3535C35.5066 62.368 36.8369 52.9858 31.6825 40.7713C24.2609 22.9724 31.3406 13.631 40.2757 15.5505C49.0036 17.2561 52.3189 28.9903 61.0395 32.7164C69.5499 37.0369 80.0832 32.2799 87.1316 38.3366C93.9728 44.1795 91.2699 55.1995 72.9501 60.6313C60.6678 64.1812 55.0195 71.9583 45.0544 67.3535Z" fill="white"/>
<path d="M19.7844 63.3582C28.5611 58.9582 32.6504 50.6748 29.5821 45.0618C26.5138 39.4488 16.1878 39.0879 7.61707 43.7005C-1.15967 48.1005 -5.45497 56.1713 -2.18064 61.9969C1.09368 67.8225 11.0077 67.7582 19.7844 63.3582Z" fill="white"/>
<path d="M66.2048 85.1008C63.7247 75.581 66.8783 67.5767 73.1655 66.7175C79.4527 65.8584 86.9138 73.5578 88.986 83.0433C91.4661 92.5631 88.3125 100.567 82.0252 101.427C75.738 102.286 68.2769 94.5863 66.2048 85.1008Z" fill="white"/>
<path d="M32.3541 91.0641C38.3984 82.6393 39.553 72.6712 33.7693 68.3785C27.9856 64.0858 18.2797 67.5595 12.2354 75.9842C6.19109 84.4089 5.03653 94.3771 10.8202 98.6698C16.6039 102.963 26.3098 99.4888 32.3541 91.0641Z" fill="white"/>
<path d="M35.0741 94.3858C37.3928 84.5949 44.5227 79.0251 51.1052 81.1016C57.6878 83.1781 60.5624 92.8806 58.2437 102.672C55.925 112.463 48.7951 118.032 42.2126 115.956C35.6301 113.879 32.7554 104.177 35.0741 94.3858Z" fill="white"/>
</g>
<defs>
<filter id="filter0_f_130_1074" x="-11.2764" y="7.30334" width="109.845" height="117.084" filterUnits="userSpaceOnUse" color-interpolation-filters="sRGB">
<feFlood flood-opacity="0" result="BackgroundImageFix"/>
<feBlend mode="normal" in="SourceGraphic" in2="BackgroundImageFix" result="shape"/>
<feGaussianBlur stdDeviation="4" result="effect1_foregroundBlur_130_1074"/>
</filter>
</defs>
</svg>
