<svg width="80" height="124" viewBox="0 0 80 124" fill="none" xmlns="http://www.w3.org/2000/svg">
<g filter="url(#filter0_f_130_545)">
<path d="M18.7707 63.9382C25.7774 72.1188 21.051 80.3321 21.2895 93.5874C21.5542 112.87 11.5066 118.906 3.92763 113.799C-3.53861 108.967 -2.24891 96.8424 -8.95641 90.1385C-15.2477 82.9612 -26.7947 83.4565 -31.0828 75.2118C-35.2582 67.2426 -28.6483 58.02 -9.62292 59.7961C3.09825 61.0721 11.2351 55.9557 18.7707 63.9382Z" fill="#FFFAF3"/>
<path d="M40.7389 77.0508C30.9551 77.8685 24.0769 84.035 24.8359 90.3868C25.5949 96.7385 35.0449 100.916 44.7166 99.8246C54.5004 99.0069 61.4907 93.1144 60.6196 86.4887C59.7485 79.8629 50.5227 76.2331 40.7389 77.0508Z" fill="#FFFAF3"/>
<path d="M5.74432 39.5945C4.50346 49.3535 -1.40247 55.6093 -7.55782 54.0669C-13.7132 52.5245 -17.773 42.6015 -16.1663 33.0261C-14.9254 23.2672 -9.01949 17.0114 -2.86414 18.5538C3.29121 20.0962 7.35104 30.0192 5.74432 39.5945Z" fill="#FFFAF3"/>
<path d="M39.3827 46.6571C30.6373 52.2273 25.856 61.0498 29.6267 67.1866C33.3974 73.3234 43.6989 73.7113 52.4444 68.1411C61.1898 62.5709 65.9711 53.7484 62.2004 47.6116C58.4297 41.4748 48.1282 41.0869 39.3827 46.6571Z" fill="#FFFAF3"/>
<path d="M38.0943 42.5617C32.2984 50.7865 23.6078 53.3028 18.2709 48.9257C12.934 44.5487 13.8766 34.4733 19.6725 26.2485C25.4683 18.0237 34.1589 15.5074 39.4959 19.8844C44.8328 24.2615 43.8901 34.3369 38.0943 42.5617Z" fill="#FFFAF3"/>
</g>
<defs>
<filter id="filter0_f_130_545" x="-40.2836" y="9.76044" width="111.785" height="113.769" filterUnits="userSpaceOnUse" color-interpolation-filters="sRGB">
<feFlood flood-opacity="0" result="BackgroundImageFix"/>
<feBlend mode="normal" in="SourceGraphic" in2="BackgroundImageFix" result="shape"/>
<feGaussianBlur stdDeviation="4" result="effect1_foregroundBlur_130_545"/>
</filter>
</defs>
</svg>
