<svg width="128" height="124" viewBox="0 0 128 124" fill="none" xmlns="http://www.w3.org/2000/svg">
<g filter="url(#filter0_f_130_533)">
<path d="M67.1938 64.1615C74.2005 72.342 69.474 80.5553 69.7126 93.8106C69.9772 113.093 59.9297 119.129 52.3507 114.022C44.8845 109.191 46.1742 97.0656 39.4667 90.3618C33.1754 83.1844 21.6284 83.6798 17.3403 75.435C13.1648 67.4658 19.7748 58.2432 38.8001 60.0194C51.5213 61.2953 59.6582 56.1789 67.1938 64.1615Z" fill="#FFFAF3"/>
<path d="M89.162 77.2741C79.3782 78.0918 72.5 84.2583 73.259 90.61C74.018 96.9617 83.468 101.14 93.1397 100.048C102.924 99.2302 109.914 93.3377 109.043 86.7119C108.172 80.0862 98.9458 76.4564 89.162 77.2741Z" fill="#FFFAF3"/>
<path d="M54.1674 39.8178C52.9266 49.5767 47.0207 55.8325 40.8653 54.2902C34.71 52.7478 30.6501 42.8248 32.2568 33.2494C33.4977 23.4905 39.4036 17.2347 45.559 18.777C51.7143 20.3194 55.7742 30.2424 54.1674 39.8178Z" fill="#FFFAF3"/>
<path d="M87.8058 46.8804C79.0604 52.4506 74.2791 61.2731 78.0498 67.4099C81.8205 73.5467 92.122 73.9346 100.867 68.3644C109.613 62.7942 114.394 53.9717 110.623 47.8349C106.853 41.6981 96.5513 41.3102 87.8058 46.8804Z" fill="#FFFAF3"/>
<path d="M86.5174 42.785C80.7215 51.0098 72.0309 53.5261 66.694 49.149C61.357 44.772 62.2997 34.6966 68.0955 26.4718C73.8914 18.247 82.582 15.7307 87.9189 20.1077C93.2559 24.4848 92.3132 34.5602 86.5174 42.785Z" fill="#FFFAF3"/>
</g>
<defs>
<filter id="filter0_f_130_533" x="8.13947" y="9.9837" width="111.785" height="113.769" filterUnits="userSpaceOnUse" color-interpolation-filters="sRGB">
<feFlood flood-opacity="0" result="BackgroundImageFix"/>
<feBlend mode="normal" in="SourceGraphic" in2="BackgroundImageFix" result="shape"/>
<feGaussianBlur stdDeviation="4" result="effect1_foregroundBlur_130_533"/>
</filter>
</defs>
</svg>
