<svg width="179" height="266" viewBox="0 0 179 266" fill="none" xmlns="http://www.w3.org/2000/svg">
<g filter="url(#filter0_f_127_232)">
<path d="M129.837 137.794C114.773 155.4 125.829 173.21 125.299 201.725C124.705 243.206 145.973 255.267 162.263 244.273C178.31 233.871 174.544 207.85 188.964 193.421C202.49 177.973 227.882 179.956 237.105 162.215C246.086 145.067 232.918 124.414 192.041 128.258C164.708 131.018 146.038 120.612 129.837 137.794Z" fill="#FFFAF3"/>
<path d="M82.6041 165.612C103.88 167.42 119.147 180.656 117.523 194.41C115.898 208.163 96.5256 218.009 75.4921 215.608C54.2158 213.801 38.7069 201.158 40.5736 186.811C42.4404 172.465 61.3279 163.805 82.6041 165.612Z" fill="#FFFAF3"/>
<path d="M158.106 84.0482C160.699 105.186 173.739 119.107 186.99 115.721C200.24 112.335 208.383 92.4328 205.002 71.6954C202.409 50.5577 189.369 36.637 176.118 40.023C162.868 43.409 154.725 63.3108 158.106 84.0482Z" fill="#FFFAF3"/>
<path d="M87.6541 97.9384C106.309 109.941 114.798 130.335 106.608 143.769C98.4189 157.203 75.8415 158.079 57.1867 146.075C38.5319 134.072 30.0429 113.679 38.2324 100.245C46.4219 86.8112 68.9992 85.9354 87.6541 97.9384Z" fill="#FFFAF3"/>
<path d="M88.9072 91.5522C101.439 109.148 120.446 115.583 131.89 106.28C143.333 96.9776 142.525 75.618 129.994 58.022C117.462 40.426 98.4548 33.9916 87.0112 43.2941C75.5676 52.5966 76.3757 73.9563 88.9072 91.5522Z" fill="#FFFAF3"/>
</g>
<defs>
<filter id="filter0_f_127_232" x="27.1124" y="31.0434" width="220.679" height="225.079" filterUnits="userSpaceOnUse" color-interpolation-filters="sRGB">
<feFlood flood-opacity="0" result="BackgroundImageFix"/>
<feBlend mode="normal" in="SourceGraphic" in2="BackgroundImageFix" result="shape"/>
<feGaussianBlur stdDeviation="4" result="effect1_foregroundBlur_127_232"/>
</filter>
</defs>
</svg>
