<svg width="33" height="33" viewBox="0 0 33 33" fill="none" xmlns="http://www.w3.org/2000/svg">
<g filter="url(#filter0_f_136_260)">
<path d="M17.1192 15.6008C18.9595 13.6731 21.0985 14.6331 24.3558 14.2458C29.0962 13.7028 30.831 16.0267 29.7617 18.019C28.7574 19.9768 25.7405 19.9598 24.2564 21.7772C22.6454 23.5039 23.0535 26.3342 21.1301 27.5942C19.2718 28.8196 16.8375 27.421 16.8033 22.6933C16.8021 19.53 15.3409 17.6537 17.1192 15.6008Z" fill="#FFFAF3"/>
<path d="M19.8029 9.86764C20.2467 12.2559 21.9352 13.7964 23.48 13.4521C25.0249 13.1078 25.8192 10.6779 25.3107 8.32398C24.8669 5.93569 23.2431 4.36087 21.6335 4.73953C20.024 5.11819 19.3591 7.47934 19.8029 9.86764Z" fill="#FFFAF3"/>
<path d="M11.4494 19.4109C13.8826 19.4745 15.569 20.7733 15.3419 22.3269C15.1147 23.8804 12.7725 25.1258 10.3754 24.9676C7.94224 24.904 6.25583 23.6051 6.48297 22.0516C6.71012 20.498 9.05233 19.2526 11.4494 19.4109Z" fill="#FFFAF3"/>
<path d="M12.3541 10.9548C13.9422 12.9697 16.2326 13.9281 17.6498 12.8478C19.0671 11.7674 18.9073 9.22177 17.3193 7.20689C15.7313 5.19201 13.4409 4.23362 12.0236 5.31397C10.6063 6.39433 10.7661 8.93996 12.3541 10.9548Z" fill="#FFFAF3"/>
<path d="M11.3779 11.3735C13.5463 12.5965 14.3811 14.6736 13.4359 16.0959C12.4906 17.5182 9.9869 17.5358 7.81849 16.3129C5.65008 15.0899 4.81523 13.0128 5.76049 11.5905C6.70576 10.1682 9.20947 10.1505 11.3779 11.3735Z" fill="#FFFAF3"/>
</g>
<defs>
<filter id="filter0_f_136_260" x="4.37524" y="3.68335" width="26.6909" height="25.3314" filterUnits="userSpaceOnUse" color-interpolation-filters="sRGB">
<feFlood flood-opacity="0" result="BackgroundImageFix"/>
<feBlend mode="normal" in="SourceGraphic" in2="BackgroundImageFix" result="shape"/>
<feGaussianBlur stdDeviation="0.5" result="effect1_foregroundBlur_136_260"/>
</filter>
</defs>
</svg>
